# xmcd
#
# Track frame offsets: 
#        150
#        13149
#        40281
#        62179
#        81036
#        93420
#        118746
#        132347
#        148530
#        162063
#        178853
#
# Disc length: 2743 seconds
#
# Revision: 0
# Processed by: cddbd v1.5.2PL0 Copyright (c) Steve Scherf et al.
# Submitted via: ExactAudioCopy v1.2
#
DISCID=950ab50b
DTITLE=Ebony Rhythm Band - Soul Heart Transplant: The Lamp Sessions
DYEAR=1900
DGENRE=Funk
TTITLE0=Soul Heart Transplant
TTITLE1=Light My Fire
TTITLE2=Ode To Billy Joe
TTITLE3=Vanilla Fudge
TTITLE4=Drugs Ain't Cool
TTITLE5=Get Yourself Together
TTITLE6=The Thought Of Losing Your Love
TTITLE7=Can I Call You Baby
TTITLE8=Fool Am I
TTITLE9=It's Too Late For Love
TTITLE10=Light My Fire (Alt.)
EXTD=
EXTT0=
EXTT1=
EXTT2=
EXTT3=
EXTT4=
EXTT5=
EXTT6=
EXTT7=
EXTT8=
EXTT9=
EXTT10=
PLAYORDER=
